<svg width="10" height="10" viewBox="0 0 10 10" fill="none" xmlns="http://www.w3.org/2000/svg">
<path d="M7.01726 3.21436H2.98267L4.99996 4.94348L7.01726 3.21436Z" fill="#F2F2F2"/>
<path d="M5.00002 5.35707C4.95738 5.35707 4.91614 5.34181 4.88379 5.314L2.67859 3.42383V6.78564H7.32145V3.42383L5.11625 5.314C5.0839 5.34181 5.04265 5.35707 5.00002 5.35707Z" fill="#F2F2F2"/>
<path d="M5 0C2.2386 0 0 2.2386 0 5C0 7.7614 2.2386 10 5 10C7.7614 10 10 7.7614 10 5C9.99686 2.2399 7.7601 0.00313895 5 0ZM7.67857 6.96429C7.67857 7.0629 7.59862 7.14286 7.5 7.14286H2.5C2.40138 7.14286 2.32143 7.0629 2.32143 6.96429V3.03571C2.32143 2.9371 2.40138 2.85714 2.5 2.85714H7.5C7.59862 2.85714 7.67857 2.9371 7.67857 3.03571V6.96429Z" fill="#F2F2F2"/>
</svg>
