<svg width="10" height="10" viewBox="0 0 10 10" fill="none" xmlns="http://www.w3.org/2000/svg">
<path d="M10 5C10 2.23828 7.76172 0 5 0C2.23828 0 0 2.23828 0 5C0 7.76172 2.23828 10 5 10C5.0293 10 5.05859 10 5.08789 9.99805V6.10742H4.01367V4.85547H5.08789V3.93359C5.08789 2.86523 5.74023 2.2832 6.69336 2.2832C7.15039 2.2832 7.54297 2.31641 7.65625 2.33203V3.44922H7C6.48242 3.44922 6.38086 3.69531 6.38086 4.05664V4.85352H7.62109L7.45898 6.10547H6.38086V9.80664C8.4707 9.20703 10 7.2832 10 5Z" fill="#F2F2F2"/>
</svg>
