<svg width="10" height="10" viewBox="0 0 10 10" fill="none" xmlns="http://www.w3.org/2000/svg">
<path d="M5.87891 5C5.87891 5.48538 5.48538 5.87891 5 5.87891C4.51462 5.87891 4.12109 5.48538 4.12109 5C4.12109 4.51462 4.51462 4.12109 5 4.12109C5.48538 4.12109 5.87891 4.51462 5.87891 5Z" fill="#F2F2F2"/>
<path d="M6.48438 2.34375H3.51562C2.86942 2.34375 2.34375 2.86942 2.34375 3.51562V6.48438C2.34375 7.13058 2.86942 7.65625 3.51562 7.65625H6.48438C7.13058 7.65625 7.65625 7.13058 7.65625 6.48438V3.51562C7.65625 2.86942 7.13058 2.34375 6.48438 2.34375ZM5 6.46484C4.19228 6.46484 3.53516 5.80772 3.53516 5C3.53516 4.19228 4.19228 3.53516 5 3.53516C5.80772 3.53516 6.46484 4.19228 6.46484 5C6.46484 5.80772 5.80772 6.46484 5 6.46484ZM6.67969 3.61328C6.51787 3.61328 6.38672 3.48213 6.38672 3.32031C6.38672 3.15849 6.51787 3.02734 6.67969 3.02734C6.84151 3.02734 6.97266 3.15849 6.97266 3.32031C6.97266 3.48213 6.84151 3.61328 6.67969 3.61328Z" fill="#F2F2F2"/>
<path d="M7.36328 0H2.63672C1.18286 0 0 1.18286 0 2.63672V7.36328C0 8.81714 1.18286 10 2.63672 10H7.36328C8.81714 10 10 8.81714 10 7.36328V2.63672C10 1.18286 8.81714 0 7.36328 0ZM8.24219 6.48438C8.24219 7.45361 7.45361 8.24219 6.48438 8.24219H3.51562C2.54639 8.24219 1.75781 7.45361 1.75781 6.48438V3.51562C1.75781 2.54639 2.54639 1.75781 3.51562 1.75781H6.48438C7.45361 1.75781 8.24219 2.54639 8.24219 3.51562V6.48438Z" fill="#F2F2F2"/>
</svg>
