<svg width="10" height="10" viewBox="0 0 10 10" fill="none" xmlns="http://www.w3.org/2000/svg">
<path d="M4.3772 5.93671L6.00363 4.99997L4.3772 4.06323V5.93671Z" fill="#F2F2F2"/>
<path d="M5 0C2.239 0 0 2.239 0 5C0 7.761 2.239 10 5 10C7.761 10 10 7.761 10 5C10 2.239 7.761 0 5 0ZM8.12424 5.00511C8.12424 5.00511 8.12424 6.01913 7.99561 6.5081C7.92351 6.77574 7.71248 6.98677 7.44484 7.05879C6.95587 7.1875 5 7.1875 5 7.1875C5 7.1875 3.04924 7.1875 2.55516 7.05368C2.28752 6.98166 2.07649 6.77055 2.00439 6.50291C1.87569 6.01913 1.87569 5 1.87569 5C1.87569 5 1.87569 3.98605 2.00439 3.49709C2.07642 3.22945 2.29263 3.01323 2.55516 2.94121C3.04413 2.8125 5 2.8125 5 2.8125C5 2.8125 6.95587 2.8125 7.44484 2.94632C7.71248 3.01834 7.92351 3.22945 7.99561 3.49709C8.12943 3.98605 8.12424 5.00511 8.12424 5.00511Z" fill="#F2F2F2"/>
</svg>
